<svg width="480" height="480" xmlns="http://www.w3.org/2000/svg">

 <g>
  <title>Layer 1</title>
  <path stroke="null" id="svg_1" d="m468.36782,275.87891q6.43729,40.88791 -32.77164,67.03716q-39.20893,26.14925 -69.05453,62.75819q-29.8456,36.60894 -82.51431,14.26323q-52.66871,-22.34572 -92.46284,-25.67381q-39.79413,-3.32809 -93.04805,-5.70529q-53.25391,-2.3772 -70.22494,-40.88791q-16.97103,-38.51071 -10.53374,-75.59509q6.43729,-37.08439 14.6302,-69.41436q8.19291,-32.32998 32.18643,-58.00378q23.99352,-25.67381 43.89059,-68.46348q19.89707,-42.78968 71.39536,-32.80542q51.49829,9.98426 102.99658,0q51.49829,-9.98426 79.58827,26.14925q28.08998,36.1335 63.78766,61.80731q35.69768,25.67381 35.69768,64.65995q0,38.98615 6.43729,79.87406z" fill="#474bff"/>
  <ellipse ry="78.5" rx="129.5" id="svg_2" cy="121.5" cx="392.5" stroke="null" fill="#474bff"/>
  <ellipse ry="28.5" rx="86" id="svg_3" cy="44.5" cx="214" stroke="null" fill="#474bff"/>
  <ellipse ry="75" rx="45" id="svg_4" cy="246" cx="482" stroke="null" fill="#474bff"/>
  <ellipse ry="50.5" rx="137.5" id="svg_5" cy="47.5" cx="415.5" stroke="null" fill="#474bff"/>
  <ellipse ry="13" rx="16.5" id="svg_6" cy="30" cx="381.5" stroke="null" fill="#474bff"/>
  <ellipse ry="35.5" rx="177.5" id="svg_7" cy="14.5" cx="337.5" stroke="null" fill="#474bff"/>
  <ellipse ry="0.5" rx="422.5" id="svg_8" cy="37.5" cx="211.5" stroke="null" fill="#474bff"/>
  <ellipse ry="71.5" rx="688" id="svg_9" cy="35.5" cx="344" stroke="null" fill="#474bff"/>
 </g>
</svg>