<svg width="480" height="480" xmlns="http://www.w3.org/2000/svg">

 <g>
  <title>Layer 1</title>
  <path stroke="null" id="svg_1" d="m570.36782,238.15064q6.43729,56.09493 -32.77164,91.96959q-39.20893,35.87466 -69.05453,86.09919q-29.8456,50.22453 -82.51431,19.568q-52.66871,-30.65653 -92.46284,-35.2224q-39.79413,-4.56587 -93.04805,-7.8272q-53.25391,-3.26133 -70.22494,-56.09493q-16.97103,-52.8336 -10.53374,-103.71039q6.43729,-50.8768 14.6302,-95.23093q8.19291,-44.35413 32.18643,-79.57653q23.99352,-35.2224 43.89059,-93.92639q19.89707,-58.704 71.39536,-45.0064q51.49829,13.6976 102.99658,0q51.49829,-13.6976 79.58827,35.87466q28.08998,49.57226 63.78766,84.79466q35.69768,35.2224 35.69768,88.70826q0,53.48586 6.43729,109.58079z" fill="#474bff"/>
 </g>
</svg>