<?xml version="1.0" standalone="no"?>
<!DOCTYPE svg PUBLIC "-//W3C//DTD SVG 20010904//EN"
 "http://www.w3.org/TR/2001/REC-SVG-20010904/DTD/svg10.dtd">
<svg version="1.0" xmlns="http://www.w3.org/2000/svg"
 width="325.000000pt" height="269.000000pt" viewBox="0 0 325.000000 269.000000"
 preserveAspectRatio="xMidYMid meet">
<g transform="translate(0.000000,269.000000) scale(0.100000,-0.100000)"
fill="#fff" stroke="none">
<path d="M1867 2083 c-4 -3 -73 -9 -155 -12 l-147 -6 -5 -40 c-3 -22 -9 -45
-12 -50 -4 -6 -2 -17 3 -25 9 -13 10 -13 8 0 -1 8 1 22 4 30 3 8 7 29 9 45 l3
30 145 8 c80 5 197 10 260 10 l114 2 9 -32 c6 -18 18 -33 29 -36 26 -7 18 -31
-10 -35 l-22 -3 0 -342 c0 -188 -3 -420 -7 -514 l-6 -173 29 -1 c62 -1 66 -8
67 -95 1 -72 -1 -84 -23 -111 -14 -16 -36 -44 -49 -61 -13 -18 -29 -32 -36
-32 -25 0 -106 -108 -104 -140 0 -8 5 -4 11 10 10 25 10 24 30 -20 10 -25 26
-53 35 -62 10 -12 12 -18 4 -18 -6 0 -21 16 -33 35 -25 44 -52 43 -55 0 -2
-26 -1 -27 5 -7 9 29 28 25 24 -5 -1 -12 2 -24 8 -28 18 -11 11 -25 -12 -26
-13 0 -18 -3 -12 -5 6 -2 28 0 50 5 21 5 30 9 20 10 -10 1 -25 9 -32 19 -23
29 -15 37 11 12 34 -32 54 -14 25 22 -39 50 -43 78 -19 112 l22 31 -21 -19
c-12 -11 -22 -15 -22 -9 0 16 36 44 45 36 4 -5 5 -3 2 3 -8 14 20 40 31 30 8
-9 5 -221 -4 -248 -4 -13 0 -18 15 -18 11 0 23 -4 26 -10 4 -6 -15 -10 -50
-10 -35 0 -54 4 -50 10 3 6 16 10 27 10 12 0 19 3 15 6 -3 4 -23 3 -44 -1 -21
-4 -32 -10 -25 -12 18 -7 15 -21 -5 -26 -10 -2 -4 -3 12 -1 35 4 83 3 290 -3
l149 -4 91 37 c49 20 95 41 102 46 8 7 13 53 15 141 l3 132 80 5 80 5 -1 40
c-1 22 -6 82 -12 133 -12 103 -3 219 24 294 19 55 90 187 115 213 16 18 19 39
21 155 2 131 15 200 38 200 11 0 7 -44 -9 -82 -15 -39 -3 -35 14 5 l13 32 8
-55 c4 -30 9 -49 12 -42 6 18 -17 134 -29 149 -7 8 -5 14 7 21 18 10 23 77 6
94 -4 4 -6 -10 -4 -31 3 -30 -2 -44 -20 -64 -35 -38 -45 -86 -47 -226 -2 -116
-3 -126 -26 -153 -37 -43 -103 -184 -121 -258 -20 -77 -22 -215 -5 -322 7 -43
10 -82 6 -88 -3 -5 -35 -10 -70 -10 -99 0 -95 6 -95 -139 0 -69 -4 -131 -8
-136 -4 -6 -27 -19 -52 -29 -139 -56 -140 -56 -280 -56 -93 0 -140 4 -148 12
-8 8 -13 63 -14 167 l-2 156 -3 -147 c-3 -139 -5 -148 -23 -148 -11 0 -17 5
-15 13 3 6 6 69 8 138 l3 126 37 44 c20 25 40 56 45 69 10 28 8 156 -3 182 -4
9 -4 21 -1 27 4 5 2 12 -4 16 -7 4 -7 12 0 25 7 13 7 21 0 25 -7 4 -7 12 0 25
7 13 7 21 0 25 -7 4 -7 12 0 24 5 10 7 21 3 25 -9 9 -10 109 -1 129 5 9 5 17
0 17 -5 0 -8 34 -6 75 1 41 -1 75 -4 75 -4 0 -7 36 -7 80 0 44 3 80 6 80 3 0
6 7 6 15 0 8 -3 15 -6 15 -3 0 -6 74 -5 166 0 91 -3 167 -8 170 -5 3 -5 11 -1
17 14 23 11 35 -13 41 -15 4 -26 16 -30 34 -4 15 -12 30 -18 34 -14 10 -220
10 -229 1z m279 -136 c4 -3 7 -124 7 -267 1 -153 5 -260 10 -260 5 0 4 -6 -2
-13 -6 -8 -8 -17 -5 -20 9 -9 11 -327 2 -327 -4 0 -9 39 -11 88 -2 62 -3 47
-5 -55 -2 -139 -3 -143 -23 -143 -21 0 -22 1 -16 163 4 89 7 316 7 504 0 295
2 341 15 339 8 -1 17 -5 21 -9z"/>
<path d="M481 1936 c-34 -19 -39 -38 -40 -139 -1 -101 4 -107 71 -83 36 13 39
15 16 16 -15 0 -30 -4 -33 -10 -3 -5 -15 -10 -26 -10 -17 0 -19 8 -19 90 0 86
1 92 28 117 l27 25 180 -5 c204 -7 335 -29 545 -95 131 -42 206 -56 245 -46
19 5 23 12 23 51 1 50 13 70 45 76 l22 4 -22 2 c-39 2 -64 -47 -54 -103 7 -37
-92 -27 -259 25 -212 67 -340 90 -545 95 -145 4 -185 2 -204 -10z"/>
<path d="M750 1681 c-5 -11 -10 -29 -10 -39 0 -18 -4 -19 -42 -10 -24 6 -86 8
-139 5 -99 -6 -122 0 -112 32 3 12 2 12 -7 -2 -9 -15 -9 -22 4 -36 20 -22 20
-48 1 -85 -19 -36 -19 -70 0 -86 29 -24 17 -47 -37 -73 -122 -61 -240 -186
-305 -324 -46 -99 -83 -263 -92 -401 -3 -62 -3 -115 0 -118 3 -2 7 34 8 79 3
130 36 306 77 403 27 64 102 173 157 228 70 70 169 136 204 136 19 0 24 3 15
9 -11 7 -10 10 3 15 27 10 135 7 135 -4 0 -5 7 -10 16 -10 14 0 14 1 0 16 -13
12 -32 15 -86 12 -39 -2 -70 0 -70 4 0 19 249 23 267 4 6 -6 -55 -10 -92 -6
-11 1 -17 -1 -13 -6 5 -4 27 -7 50 -6 23 1 44 -1 47 -5 3 -5 26 -18 51 -29 64
-31 162 -107 209 -163 116 -139 173 -305 190 -558 7 -96 8 -105 10 -48 4 221
-69 466 -182 606 -51 64 -163 152 -222 174 l-40 16 3 127 c2 69 8 132 14 139
14 17 58 16 135 -2 162 -38 345 -164 448 -310 39 -54 115 -193 115 -209 0 -3
9 -26 21 -51 15 -31 18 -49 11 -61 -19 -34 10 -108 49 -128 20 -9 23 -18 21
-48 l-3 -36 53 -7 c57 -8 88 -27 88 -57 0 -10 25 -66 55 -124 l54 -105 2 -133
c1 -73 -1 -139 -6 -146 -5 -9 -4 -11 3 -6 7 4 13 19 13 34 1 17 3 21 6 9 5
-20 19 -21 53 -2 31 17 66 19 76 3 5 -8 2 -9 -9 -5 -10 3 -17 2 -17 -3 0 -6
-9 -10 -20 -10 -24 0 -72 -23 -87 -42 -11 -13 -24 -86 -26 -145 0 -22 8 -42
23 -58 36 -39 46 -30 11 10 -30 35 -40 68 -22 79 5 3 9 24 9 47 1 60 24 81
113 104 43 12 48 11 64 -8 10 -12 14 -22 8 -24 -6 -2 -18 -10 -28 -17 -17 -12
-16 -13 6 -12 15 1 25 -5 27 -18 5 -26 -11 -33 -75 -35 -30 0 -59 -3 -64 -7
-22 -13 -5 10 41 56 28 28 46 50 41 50 -19 0 -103 -91 -97 -105 3 -8 11 -13
18 -10 40 13 407 20 538 10 19 -1 79 -3 133 -4 l97 -1 1 -42 c1 -24 5 -56 9
-73 4 -17 5 5 2 49 -4 58 -2 77 6 72 8 -5 10 -1 5 10 -4 11 -8 13 -11 6 -2 -8
-34 -12 -100 -11 -144 1 -162 17 -22 20 l115 3 -130 8 c-170 10 -393 19 -425
17 -14 -1 -33 -2 -42 -2 -10 -1 -18 -5 -18 -10 0 -4 10 -7 22 -5 11 2 23 -3
25 -9 3 -9 -6 -13 -25 -13 -26 0 -30 4 -35 32 -5 28 -1 38 26 62 18 16 24 26
15 23 -10 -3 -20 -2 -23 3 -4 6 -12 10 -18 10 -8 0 -7 -3 2 -9 7 -5 11 -13 7
-19 -4 -6 -19 1 -38 19 -37 33 -65 36 -109 13 -17 -8 -33 -13 -37 -10 -7 8 31
36 40 30 5 -3 8 -1 8 4 0 5 10 14 23 19 21 10 21 11 -5 9 -14 0 -25 -4 -23 -7
2 -3 -9 -13 -24 -22 -28 -16 -29 -16 -35 6 -3 12 -6 65 -6 118 0 88 -3 101
-30 150 -42 74 -80 159 -80 175 0 27 -37 51 -90 58 -51 7 -52 8 -48 37 3 16 1
32 -3 34 -4 3 -5 14 -2 26 5 18 2 20 -23 17 -25 -3 -29 1 -40 39 -8 26 -9 45
-3 48 11 8 12 52 1 59 -5 3 -26 46 -47 97 -70 170 -176 299 -321 391 -148 95
-357 149 -384 99z m-48 -61 l37 -11 -1 -77 0 -77 -141 0 c-137 0 -140 1 -150
24 -8 16 -7 28 1 41 6 11 14 37 18 59 5 33 11 41 33 44 54 8 167 7 203 -3z"/>
<path d="M1847 785 c8 -54 40 -157 69 -223 28 -63 30 -82 9 -82 -8 0 -12 6 -9
14 3 7 -4 28 -14 47 -11 19 -28 66 -37 104 -10 39 -22 74 -26 79 -10 11 5 -54
30 -129 11 -33 18 -61 16 -63 -9 -9 -42 61 -39 81 4 21 4 21 -5 2 -5 -11 -10
-14 -10 -7 -1 6 -6 12 -13 12 -7 0 -5 -6 4 -17 9 -10 18 -27 22 -38 12 -37 71
-99 89 -92 24 9 21 37 -8 95 -24 48 -36 95 -16 63 7 -11 9 -11 14 0 3 8 6 0 6
-18 1 -17 5 -34 9 -37 5 -3 3 27 -4 67 -7 40 -13 91 -13 115 -1 36 -4 42 -22
42 -23 0 -23 -8 -5 -130 5 -31 -9 9 -42 120 l-11 35 6 -40z"/>
<path d="M305 490 c-50 -4 3 -5 118 -2 192 5 207 4 207 -13 0 -11 -5 -15 -15
-11 -8 3 -15 1 -15 -4 0 -5 10 -10 23 -10 12 0 40 -2 62 -4 37 -5 31 -2 -22
10 -13 2 -23 11 -23 19 0 11 12 15 45 15 49 0 62 -16 18 -23 -26 -4 -26 -4 5
-6 23 -1 32 3 32 15 0 14 7 15 38 10 20 -3 49 -6 65 -6 20 0 27 -5 27 -20 0
-11 7 -20 15 -20 36 0 65 -23 65 -53 0 -81 -97 -190 -205 -231 -80 -30 -121
-33 -220 -17 -159 26 -276 124 -300 252 -6 31 -4 36 20 47 14 7 38 12 53 12
19 0 23 3 13 9 -14 9 -65 -3 -89 -22 -26 -21 13 -138 66 -199 40 -45 120 -84
212 -104 83 -18 184 -21 203 -7 7 6 40 20 74 33 99 35 182 141 183 231 0 29
-5 38 -25 47 -14 7 -32 12 -40 12 -8 0 -15 5 -15 11 0 7 16 8 48 3 77 -12 135
-9 170 10 49 25 33 30 -21 6 -40 -18 -53 -19 -114 -10 -37 5 -75 10 -83 10
-10 0 -11 3 -3 8 14 9 -454 11 -572 2z"/>
</g>
</svg>
