<svg width="910.88794" height="653.61419" xmlns="http://www.w3.org/2000/svg" data-name="Layer 1">

 <g>
  <title>Layer 1</title>
  <rect id="svg_1" fill="#3f3d56" height="1.87469" width="431.1819" y="646.47623"/>
  <polygon id="svg_2" fill="#ffb8b8" points="109.607 639.942 121.866 639.942 127.699 592.654 109.605 592.654 109.607 639.942"/>
  <path id="svg_3" transform="rotate(179.997 397.081 1410.94)" fill="#2f2e41" d="m648.61715,2170.57589l38.53073,0a0,0 0 0 1 0,0l0,14.88687a0,0 0 0 1 0,0l-23.64388,0a14.88685,14.88685 0 0 1 -14.88685,-14.88685l0,0a0,0 0 0 1 0,-0.00002z"/>
  <polygon id="svg_4" fill="#ffb8b8" points="44.379 637.585 56.532 639.205 68.564 593.103 50.629 590.712 44.379 637.585"/>
  <path id="svg_5" transform="rotate(-172.406 162.109 1430.93)" fill="#2f2e41" d="m347.7502,2190.3659l38.53073,0a0,0 0 0 1 0,0l0,14.88687a0,0 0 0 1 0,0l-23.64387,0a14.88686,14.88686 0 0 1 -14.88686,-14.88686l0,0a0,0 0 0 1 0,0l0,-0.00001z"/>
  <polygon id="svg_6" fill="#2f2e41" points="61.796 444.64 130.796 447.64 127.796 622.64 109.796 620.64 95.796 501.64 62.796 628.64 44.796 625.64 61.796 444.64"/>
  <path id="svg_7" fill="#6c63ff" d="m107.79633,340.63952l-24,-4.90286l-15,109.90286s44,29 58,-1l-19,-104z"/>
  <circle id="svg_8" fill="#ffb8b8" r="24.56103" cy="303.17101" cx="97.32782"/>
  <path id="svg_9" fill="#2f2e41" d="m83.79633,334.63952l-35,11s17,85 -11,129c0,0 35,37 50,-46c0,0 12,-67 -4,-94z"/>
  <path id="svg_10" fill="#2f2e41" d="m107.79633,340.63952l26,16s14,117 0,128s-26,-144 -26,-144z"/>
  <path id="svg_11" fill="#ffb8b8" d="m144.60607,501.60669a10.0558,10.0558 0 0 1 0.96818,-15.3889l-10.57065,-34.13562l17.83265,5.17981l7.30413,31.62164a10.11027,10.11027 0 0 1 -15.53431,12.72307z"/>
  <path id="svg_12" fill="#ffb8b8" d="m54.78197,491.73429a10.05577,10.05577 0 0 1 -1.00976,-15.38624l-14.85349,-32.50158l18.349,2.85437l11.292,30.42646a10.11027,10.11027 0 0 1 -13.77778,14.607l0.00003,-0.00001z"/>
  <polygon id="svg_13" fill="#2f2e41" points="57.796 346.64 48.796 345.64 25.796 420.64 48.796 472.64 66.796 461.64 46.796 418.64 62.796 372.64 57.796 346.64"/>
  <polygon id="svg_14" fill="#2f2e41" points="128.796 355.64 133.796 356.64 157.796 473.64 141.796 478.64 122.796 409.64 128.796 355.64"/>
  <path id="svg_15" fill="#2f2e41" d="m80.45052,313.25631a14.06316,14.06316 0 0 1 8.44415,-11.03667c4.7277,-1.93846 10.06074,-1.11966 15.15695,-0.7489s10.76991,0.04877 14.44758,-3.49856c3.3597,-3.24064 4.11524,-8.61848 2.49281,-12.99537s-5.29609,-7.775 -9.46944,-9.866a40.79142,40.79142 0 0 0 -13.47062,-3.56c-6.811,-0.82288 -13.80511,-0.92776 -20.44341,0.80412s-4.9267,5.44408 -8.81681,11.095s-5.05548,13.34984 -2.08959,19.53611c1.98454,4.13936 5.54088,7.27259 9.004,10.28584"/>
  <path stroke="null" id="svg_16" fill="#ccc" d="m629.83797,533.30552l-0.00049,-1.70469c3.72742,-0.00084 7.51117,-0.07076 11.24732,-0.20642l0.07507,1.70303c-3.76076,0.13732 -7.56972,0.20725 -11.3219,0.20808zm-11.31872,-0.19725c-3.74756,-0.1332 -7.55005,-0.3371 -11.30134,-0.60595l0.1474,-1.6997c3.727,0.26801 7.50434,0.47031 11.22718,0.60262l-0.07324,1.70303zm33.942,-0.62843l-0.14923,-1.6997c3.72009,-0.2705 7.48511,-0.61427 11.18964,-1.02132l0.22522,1.69304c-3.72968,0.40948 -7.51984,0.75492 -11.26563,1.02792l0,0.00005zm-56.51025,-0.99389c-3.738,-0.40705 -7.51026,-0.88734 -11.213,-1.42753l0.29749,-1.68305c3.67755,0.53685 7.42511,1.01383 11.13794,1.41754l-0.22243,1.69304zm78.98608,-1.47331l-0.29932,-1.68305c3.67664,-0.54024 7.399,-1.15869 11.06379,-1.83623l0.37347,1.66973c-3.689,0.68338 -7.43652,1.3052 -11.13788,1.84955l-0.00006,0zm-101.33929,-1.79211c-3.68946,-0.67922 -7.4068,-1.43581 -11.05005,-2.2466l0.4458,-1.65641c3.619,0.80657 7.31164,1.55739 10.97589,2.23161l-0.37164,1.67139zm123.525,-2.31564l-0.44855,-1.65474c3.63,-0.81241 7.2851,-1.7022 10.8642,-2.64526l0.52179,1.63809c-3.60387,0.94888 -7.28368,1.8445 -10.93743,2.6619l-0.00001,0.00001zm-145.51611,-2.58287c-3.61487,-0.94889 -7.253,-1.97604 -10.81342,-3.05314l0.59223,-1.61811c3.53656,1.07044 7.15051,2.09092 10.74109,3.03316l-0.5199,1.63809zm167.2624,-3.14472l-0.59406,-1.61651c3.53888,-1.07542 7.10248,-2.23161 10.59284,-3.43769l0.66638,1.59313c-3.51422,1.21446 -7.10248,2.37898 -10.66516,3.46107zm-188.77344,-3.36864c-3.51691,-1.21197 -7.05945,-2.50713 -10.52966,-3.8514l0.73462,-1.56822c3.4469,1.33512 6.96606,2.62201 10.45965,3.82476l-0.66461,1.59486zm209.91052,-3.93127l-0.736,-1.56822c3.42718,-1.33095 6.8681,-2.74183 10.22668,-4.19433l0.80555,1.53991c-3.38142,1.46166 -6.84615,2.88247 -10.29623,4.22263l0,0.00001zm-230.78719,-4.15521c-3.40521,-1.46999 -6.81915,-3.02149 -10.14654,-4.61219l0.87237,-1.50828c3.305,1.57899 6.69556,3.12056 10.07788,4.58056l-0.80371,1.53991zm251.18836,-4.66631l-0.8733,-1.50828c3.30182,-1.57988 6.60907,-3.24045 9.82941,-4.93432l0.93921,1.47498c-3.24231,1.70553 -6.57153,3.37692 -9.89526,4.96761l-0.00006,0.00001zm-271.265,-4.926c-3.267,-1.71719 -6.52991,-3.51345 -9.69849,-5.33886l1.00324,-1.44002c3.14709,1.81292 6.38849,3.59754 9.63348,5.30389l-0.93823,1.47498zm290.8313,-5.36883l-1.00323,-1.44002c3.14251,-1.81045 6.29418,-3.70738 9.36712,-5.63934l1.06549,1.40172c-3.093,1.94529 -6.26581,3.85551 -9.42932,5.67764l-0.00006,0zm-309.98166,-5.65766c-3.09991,-1.94776 -6.19214,-3.97543 -9.19092,-6.02723l1.12684,-1.36176c2.97912,2.03764 6.05065,4.05197 9.12957,5.98727l-1.06549,1.40172zm328.58582,-6.03805l-1.12763,-1.36176c2.97223,-2.03265 5.94818,-4.15438 8.84534,-6.3069l1.18634,1.32013c-2.9165,2.16668 -5.91254,4.30256 -8.904,6.34853l-0.00005,0zm-346.69251,-6.34686c-2.91046,-2.16251 -5.81268,-4.40823 -8.6261,-6.67565l1.24311,-1.27517c2.7951,2.25159 5.6781,4.48315 8.56933,6.63069l-1.18634,1.32013zm364.2157,-6.67148l-1.2431,-1.27518c2.79285,-2.25076 5.57373,-4.58388 8.265,-6.93367l1.298,1.23023c-2.70856,2.36481 -5.50782,4.71293 -8.31983,6.97862l-0.00007,0zm-381.1658,-6.98607c-2.704,-2.36227 -5.3985,-4.81112 -8.00775,-7.27827l1.35107,-1.182c2.59235,2.45134 5.26892,4.88437 7.95557,7.22999l-1.29889,1.23027zm397.49444,-7.27161l-1.35113,-1.18199c2.58411,-2.44386 5.15179,-4.97178 7.63245,-7.5147l1.40234,1.13204c-2.49713,2.55875 -5.08209,5.10411 -7.68366,7.56461l0,0.00005zm-413.18231,-7.56792c-2.49945,-2.56207 -4.96869,-5.19817 -7.34,-7.83516l1.45178,-1.07876c2.35483,2.61951 4.808,5.23813 7.29056,7.78189l-1.40234,1.13204zm428.212,-7.83683l-1.45178,-1.07876c2.369,-2.63366 4.7069,-5.34219 6.94958,-8.04989l1.49754,1.02548c-2.25733,2.72597 -4.61168,5.45199 -6.99536,8.10312l0.00002,0.00005zm-442.5391,-8.09068c-2.25915,-2.72767 -4.48767,-5.53278 -6.62326,-8.33872l1.54151,-0.97053c2.1214,2.78762 4.33481,5.57441 6.57931,8.28377l-1.49756,1.02548zm456.16825,-8.36703l-1.54151,-0.96887c2.12915,-2.8001 4.22174,-5.6718 6.2182,-8.53519l1.58362,0.91227c-2.01021,2.88248 -4.11647,5.77333 -6.26033,8.59175l0.00002,0.00005zm-469.04029,-8.54351c-2.00881,-2.88003 -3.98144,-5.83743 -5.86349,-8.79071l1.62207,-0.85404c1.8692,2.93331 3.829,5.87073 5.82413,8.73161l-1.58271,0.91315zm481.17835,-8.86398l-1.62207,-0.85404c1.87653,-2.94912 3.70819,-5.96646 5.4447,-8.96715l1.65869,0.7941c-1.74756,3.02067 -3.592,6.05805 -5.48138,9.02709l0.00006,0zm-492.50939,-8.92395c-1.74655,-3.01567 -3.45007,-6.10632 -5.063,-9.18609l1.69254,-0.7325c1.60238,3.05895 3.29446,6.12881 5.02911,9.1245l-1.65865,0.7941zm503.06821,-9.32674l-1.69348,-0.73249c1.60467,-3.06978 3.16357,-6.21283 4.63183,-9.34255l1.72461,0.66926c-1.47833,3.15049 -3.04733,6.31518 -4.66296,9.40578l0,0.00001zm-512.781,-9.21857c-1.4765,-3.13971 -2.899,-6.3427 -4.22861,-9.52071l1.752,-0.60595c1.32089,3.15553 2.73379,6.33771 4.20022,9.45577l-1.72361,0.67089zm521.68585,-9.76125l-1.753,-0.60429c1.3291,-3.18883 2.60334,-6.43927 3.7851,-9.65969l1.77771,0.53935c-1.18903,3.24289 -2.4715,6.51419 -3.80982,9.72462l0.00001,0.00001zm-529.72608,-9.45494c-1.19366,-3.24045 -2.32965,-6.54744 -3.37637,-9.82785l1.80053,-0.47447c1.03989,3.25793 2.16809,6.54244 3.35352,9.76125l-1.77768,0.54107zm536.90088,-10.10253l-1.80145,-0.47285c1.03436,-3.25293 2.0111,-6.57658 2.90362,-9.8803l1.81976,0.40621c-0.89801,3.32619 -1.88116,6.67319 -2.92195,9.94694l0.00002,-0.00001zm-543.212,-9.6697c-0.90072,-3.31953 -1.73785,-6.69813 -2.48938,-10.04343l1.83719,-0.34128c0.746,3.32287 1.57767,6.67986 2.472,9.97687l-1.81981,0.40784zm548.6109,-10.3223l-1.83807,-0.33961c0.74146,-3.32037 1.41882,-6.70562 2.01386,-10.0609l1.85089,0.27134c-0.59868,3.37779 -1.2806,6.78552 -2.02666,10.1292l-0.00002,-0.00004zm-553.1402,-9.84863c-0.601,-3.36532 -1.13553,-6.79469 -1.58866,-10.19326l1.861,-0.2048c0.45038,3.37615 0.9813,6.7822 1.57859,10.12499l-1.85093,0.27306zm556.74319,-10.47792l-1.86188,-0.20313c0.4458,-3.37448 0.822,-6.798 1.11676,-10.17537l1.86921,0.13484c-0.29755,3.40026 -0.6756,6.8467 -1.12409,10.2436l0,0.00005zm-559.46829,-9.95775c-0.30255,-3.40484 -0.5332,-6.86251 -0.68561,-10.27731l1.87286,-0.06911c0.15149,3.39193 0.3808,6.82672 0.681,10.20908l-1.86825,0.13734zm561.266,-10.56159l-1.87286,-0.06743c0.14648,-3.39693 0.22149,-6.83717 0.22149,-10.22529l-0.00091,-0.56477l1.87469,0l0.00092,0.56105c0.00006,3.41395 -0.07495,6.87664 -0.22327,10.29644l-0.00006,0zm-560.31362,-10.01014l-1.87469,0l0.00045,-0.28633c0,-3.32533 0.071,-6.69312 0.21146,-10.00555l1.87286,0.06576c-0.13913,3.29083 -0.20962,6.6361 -0.20962,9.94354l-0.00046,0.28258zm558.41419,-11.07017c-0.15473,-3.38486 -0.38721,-6.81965 -0.69294,-10.20825l1.86921,-0.139c0.30664,3.41147 0.541,6.86876 0.69659,10.27649l-1.87286,0.07076zm-557.54719,-9.36545l-1.8692,-0.13317c0.29474,-3.41358 0.66916,-6.86044 1.11219,-10.24571l1.86187,0.20144c-0.44035,3.36277 -0.812,6.78717 -1.10486,10.17744zm555.71378,-11.01689c-0.45221,-3.36196 -0.98676,-6.76806 -1.59094,-10.12336l1.85089,-0.27509c0.60687,3.37778 1.14606,6.80673 1.6001,10.19201l-1.86005,0.20643zm-553.05648,-9.28891l-1.85092,-0.2697c0.59409,-3.37528 1.27194,-6.78426 2.01569,-10.13124l1.83716,0.33711c-0.73823,3.32492 -1.4115,6.71061 -2.00193,10.06383zm549.42606,-10.89204c-0.75244,-3.33116 -1.5882,-6.68647 -2.48438,-9.97393l1.81977,-0.41037c0.90258,3.30952 1.74383,6.68813 2.50085,10.04135l-1.83624,0.34294zm-544.97681,-9.1532l-1.82116,-0.40454c0.8916,-3.31785 1.87106,-6.66566 2.91091,-9.95103l1.80149,0.47153c-1.03305,3.26335 -2.00559,6.58868 -2.89127,9.88404l0.00003,0zm539.566,-10.69518c-1.04352,-3.25582 -2.175,-6.53914 -3.36493,-9.75833l1.77765,-0.54272c1.19733,3.24081 2.337,6.54619 3.3869,9.82411l-1.79962,0.47694zm-533.34555,-8.95719l-1.779,-0.53772c1.18634,-3.24586 2.4642,-6.51916 3.7984,-9.7288l1.75388,0.60265c-1.32555,3.18841 -2.59517,6.43967 -3.77328,9.66387zm526.18176,-10.42759c-1.33191,-3.17093 -2.7489,-6.35103 -4.21167,-9.45244l1.72278,-0.67172c1.47284,3.12223 2.8999,6.32355 4.241,9.51571l-1.75211,0.60845zm-518.20739,-8.74992l-1.7255,-0.66756c1.4733,-3.14929 3.03861,-6.31564 4.652,-9.41001l1.69391,0.73c-1.60286,3.07394 -3.15718,6.2191 -4.6204,9.34757l-0.00001,0zm509.36572,-9.99599c-1.60468,-3.05566 -3.29993,-6.12377 -5.03919,-9.11908l1.65686,-0.79615c1.752,3.0157 3.45923,6.10426 5.074,9.1811l-1.69167,0.73413zm-499.71253,-8.51893l-1.66052,-0.7916c1.74747,-3.0286 3.58829,-6.06761 5.4708,-9.03295l1.6239,0.85235c-1.87018,2.94538 -3.69864,5.96438 -5.43421,8.97217l0.00003,0.00003zm489.23044,-9.52986c-1.87469,-2.93453 -3.83728,-5.87034 -5.83465,-8.72663l1.58178,-0.91477c2.01111,2.87546 3.98652,5.83121 5.874,8.78493l-1.62113,0.85648zm-477.96945,-8.20513l-1.58453,-0.91146c2.01111,-2.89126 4.11419,-5.78418 6.25024,-8.59801l1.54242,0.96842c-2.12189,2.79514 -4.21033,5.66849 -6.20813,8.54101l0,0.00003zm465.9166,-9.03045c-2.12641,-2.78637 -4.34351,-5.57149 -6.58893,-8.27672l1.49573,-1.02715c2.261,2.72352 4.49267,5.52696 6.63287,8.33251l-1.53967,0.97136zm-453.1287,-7.81598l-1.4985,-1.02382c2.25915,-2.73432 4.60941,-5.46288 6.98529,-8.11066l1.4527,1.07792c-2.36029,2.62986 -4.695,5.34048 -6.93952,8.05652l0.00003,0.00004zm439.58927,-8.49315c-2.36444,-2.62323 -4.82135,-5.23897 -7.30017,-7.77439l1.40051,-1.13284c2.49628,2.55246 4.96869,5.18568 7.34961,7.82681l-1.44995,1.08043zm-425.3619,-7.35941l-1.40329,-1.12951c2.48892,-2.55708 5.07077,-5.10492 7.6741,-7.57295l1.353,1.1803c-2.586,2.45131 -5.15088,4.98255 -7.62378,7.52213l-0.00003,0.00004zm410.42383,-7.92005c-2.59418,-2.4476 -5.2735,-4.87729 -7.96472,-7.2221l1.29712,-1.23108c2.70861,2.36059 5.40625,4.80656 8.0169,7.27039l-1.3493,1.1828zm-394.85358,-6.84003l-1.29986,-1.22859c2.705,-2.36687 5.50189,-4.71747 8.31213,-6.98736l1.24487,1.27435c-2.79193,2.2549 -5.57007,4.59055 -8.2572,6.94158l0.00006,0.00003zm378.61286,-7.31032c-2.80109,-2.25198 -5.68726,-4.48027 -8.57715,-6.62236l1.18451,-1.32139c2.909,2.1567 5.81451,4.39952 8.63391,6.66691l-1.24127,1.27684zm-361.8014,-6.26527l-1.18817,-1.31851c2.90863,-2.16626 5.90192,-4.30505 8.89618,-6.35767l1.12866,1.36094c-2.97461,2.03889 -5.94775,4.16394 -8.83673,6.31522l0.00006,0.00002zm344.35877,-6.66274c-2.99054,-2.04099 -6.06531,-4.05243 -9.13642,-5.97854l1.06366,-1.40339c3.09217,1.93902 6.18708,3.96378 9.19867,6.0185l-1.12591,1.36342zm-326.415,-5.64101l-1.06824,-1.40088c3.09033,-1.94734 6.26074,-3.86056 9.4234,-5.6868l1.00507,1.43918c-3.14154,1.8137 -6.291,3.71402 -9.36023,5.64846l0,0.00004zm307.8822,-5.97894c-3.16083,-1.81541 -6.404,-3.59627 -9.64081,-5.29307l0.93738,-1.47663c3.257,1.70804 6.5221,3.50097 9.7049,5.32845l-1.00147,1.44125zm-288.9223,-4.96969l-0.94055,-1.47496c3.24139,-1.70929 6.56878,-3.38403 9.88885,-4.97677l0.87512,1.50743c-3.29858,1.58229 -6.60357,3.24579 -9.82342,4.94424l0,0.00005zm269.41272,-5.26019c-3.31091,-1.57735 -6.70337,-3.11516 -10.08386,-4.57056l0.80188,-1.54072c3.40338,1.46498 6.81958,3.01318 10.15161,4.60136l-0.86963,1.50992zm-249.55857,-4.26179l-0.80689,-1.53907c3.38049,-1.46539 6.843,-2.88959 10.29163,-4.23303l0.73779,1.56695c-3.42535,1.33423 -6.86493,2.74887 -10.22253,4.2051l0,0.00005zm229.1922,-4.50523c-3.4455,-1.33055 -6.96607,-2.61366 -10.46466,-3.81478l0.66271,-1.59483c3.52149,1.20903 7.06678,2.50129 10.53425,3.84058l-0.7323,1.56903zm-208.57184,-3.52469l-0.66779,-1.59313c3.50775,-1.21611 7.09424,-2.38393 10.65961,-3.47143l0.59588,1.61648c-3.54107,1.07991 -7.10333,2.24024 -10.5877,3.44802l0,0.00005zm187.4768,-3.71614c-3.54254,-1.06836 -7.15741,-2.08507 -10.74475,-3.02195l0.51813,-1.6381c3.61121,0.94307 7.24982,1.96648 10.81616,3.04192l-0.58954,1.61813zm-166.15478,-2.78763l-0.52362,-1.63646c3.60522,-0.95388 7.28418,-1.85368 10.93426,-2.67483l0.45038,1.65476c-3.62585,0.81566 -7.28,1.70965 -10.861,2.65647l-0.00002,0.00005zm144.53943,-2.85713c-3.61945,-0.80281 -7.31348,-1.54987 -10.97864,-2.22036l0.36981,-1.67141c3.68988,0.67506 7.40863,1.42752 11.0528,2.23534l-0.44397,1.65642zm-122.709,-2.05226l-0.37622,-1.66975c3.67523,-0.68423 7.42194,-1.31016 11.13611,-1.86078l0.30206,1.68224c-3.68987,0.54726 -7.41136,1.16905 -11.06194,1.84828l-0.00001,0zm100.66236,-1.98272c-3.68671,-0.53439 -7.43476,-1.00801 -11.1402,-1.40672l0.22058,-1.69305c3.73016,0.40162 7.50342,0.87816 11.21436,1.41672l-0.29474,1.68305zm-78.46662,-1.30642l-0.227,-1.69224c3.72925,-0.41283 7.519,-0.76292 11.2638,-1.03922l0.152,1.69888c-3.72009,0.27511 -7.48461,0.62222 -11.18872,1.03258l-0.00008,0zm56.134,-1.09915c-3.71644,-0.26345 -7.49427,-0.46239 -11.22809,-0.59098l0.07141,-1.70387c3.75854,0.12985 7.561,0.33008 11.30224,0.59514l-0.14556,1.69972zm-33.71857,-0.55811l-0.07691,-1.70303c3.74848,-0.14067 7.557,-0.21476 11.31965,-0.22057l0.00274,1.70469c-3.73743,0.00583 -7.52118,0.07949 -11.24542,0.21891l-0.00006,0z"/>
  <circle id="svg_17" fill="#3f3d56" r="180.90894" cy="242.68538" cx="592.38349"/>
  <ellipse id="svg_18" fill="#fff" ry="132.16663" rx="96.07861" cy="250.68538" cx="546.17488"/>
  <ellipse id="svg_19" fill="#3f3d56" ry="42.18085" rx="26.81427" cy="275.68538" cx="512.32575"/>
  <circle id="svg_20" fill="#6c63ff" r="17.80969" cy="196.65475" cx="885.81702"/>
  <circle id="svg_21" fill="#6c63ff" r="26.24586" cy="26.24586" cx="680.09215"/>
  <circle id="svg_22" fill="#6c63ff" r="17.80969" cy="535.35092" cx="631.70442"/>
 </g>
</svg>